
      <svg data-logo="logo" xmlns="http://www.w3.org/2000/svg" viewBox="0 0 242 43">
        <g id="logogram" transform="translate(0, 1) rotate(0) "><path d="M20.5817 0.900024C9.53596 0.900024 0.581665 9.85432 0.581665 20.9C11.6274 20.9 20.5817 11.9457 20.5817 0.900024Z" fill="#45D2B0"/><path d="M20.5817 40.9C31.6274 40.9 40.5817 31.9457 40.5817 20.9C29.536 20.9 20.5817 29.8543 20.5817 40.9Z" fill="#45D2B0"/><path d="M20.5817 0.900024C31.6274 0.900024 40.5817 9.85432 40.5817 20.9C29.536 20.9 20.5817 11.9457 20.5817 0.900024Z" fill="#5854EB"/><path d="M20.5817 40.9C9.53596 40.9 0.581664 31.9457 0.581665 20.9C11.6274 20.9 20.5817 29.8543 20.5817 40.9Z" fill="#5854EB"/></g>
        <g id="logotype" transform="translate(47, 8)"><path fill="#2f7967" d="M7.93 5.79L7.93 1.09L21.64 1.09Q23.64 1.09 25.21 1.69Q26.78 2.29 27.86 3.29Q28.93 4.29 29.51 5.61Q30.08 6.94 30.08 8.37L30.08 8.37Q30.08 9.69 29.80 10.68Q29.52 11.67 28.98 12.44Q28.44 13.21 27.65 13.80Q26.87 14.39 25.86 14.87L25.86 14.87Q26.73 15.31 27.40 16.22Q28.06 17.14 28.40 18.59L28.40 18.59L29.28 21.96L31.41 21.96L31.45 27L23.93 27L22.90 20.85Q22.75 19.75 22.43 18.96Q22.12 18.16 21.59 17.66Q21.06 17.16 20.30 16.92Q19.54 16.68 18.49 16.68L18.49 16.68L16.29 16.68L16.29 22.32L18.66 22.32L18.66 27L7.93 27L7.93 22.32L10.61 22.32L10.61 5.79L7.93 5.79ZM19.69 5.79L16.29 5.79L16.29 12.06L19.69 12.06Q20.66 12.06 21.44 11.88Q22.22 11.70 22.77 11.32Q23.33 10.94 23.63 10.35Q23.93 9.77 23.93 8.97L23.93 8.97Q23.93 7.47 22.85 6.63Q21.77 5.79 19.69 5.79L19.69 5.79ZM51.15 19.26L38.11 19.26L38.16 19.79Q38.35 20.56 38.80 21.14Q39.26 21.72 39.87 22.11Q40.49 22.51 41.24 22.70Q41.99 22.90 42.76 22.90L42.76 22.90Q43.53 22.90 44.22 22.80Q44.91 22.71 45.56 22.55Q46.21 22.39 46.83 22.17Q47.44 21.96 48.08 21.72L48.08 21.72L49.96 25.22Q48.98 25.82 48.17 26.24Q47.36 26.66 46.54 26.93Q45.72 27.21 44.79 27.33Q43.87 27.46 42.64 27.46L42.64 27.46Q40.33 27.46 38.54 26.70Q36.74 25.94 35.52 24.64Q34.30 23.34 33.66 21.60Q33.02 19.86 33.02 17.91L33.02 17.91Q33.02 15.96 33.69 14.25Q34.37 12.54 35.60 11.27Q36.83 10.00 38.54 9.26Q40.25 8.53 42.33 8.53L42.33 8.53Q44.42 8.53 46.03 9.22Q47.65 9.91 48.76 11.13Q49.87 12.35 50.47 14.00Q51.07 15.65 51.12 17.55L51.12 17.55Q51.17 17.98 51.18 18.40Q51.19 18.81 51.15 19.26L51.15 19.26ZM42.20 12.80L42.20 12.80Q41.24 12.80 40.56 13.03Q39.89 13.26 39.43 13.66Q38.97 14.06 38.69 14.58Q38.42 15.09 38.27 15.65L38.27 15.65L45.67 15.65Q45.55 15.07 45.32 14.56Q45.10 14.05 44.71 13.65Q44.32 13.26 43.71 13.03Q43.10 12.80 42.20 12.80ZM65.08 14.71Q65.08 14.30 64.81 13.93Q64.55 13.55 64.04 13.27Q63.52 12.99 62.78 12.82Q62.04 12.64 61.10 12.64L61.10 12.64Q60.74 12.64 60.33 12.70Q59.92 12.76 59.57 12.92Q59.22 13.07 58.99 13.34Q58.76 13.60 58.76 14.01L58.76 14.01Q58.76 14.22 58.82 14.40Q58.88 14.59 59.05 14.76Q59.22 14.93 59.52 15.08Q59.82 15.23 60.29 15.31L60.29 15.31L63.51 15.94Q65.25 16.28 66.43 16.80Q67.61 17.31 68.33 17.99Q69.04 18.68 69.36 19.51Q69.68 20.35 69.68 21.33L69.68 21.33Q69.68 22.85 68.97 23.99Q68.26 25.14 67.10 25.90Q65.95 26.66 64.51 27.04Q63.06 27.43 61.59 27.43L61.59 27.43Q60.64 27.43 59.86 27.31Q59.08 27.19 58.46 26.98Q57.83 26.78 57.35 26.50Q56.86 26.21 56.45 25.87L56.45 25.87L53.36 25.87L53.36 21.12L58.19 21.12L58.19 21.22Q58.21 21.72 58.50 22.09Q58.79 22.45 59.26 22.71Q59.73 22.97 60.33 23.09Q60.93 23.22 61.59 23.22L61.59 23.22Q63.13 23.22 63.83 22.82Q64.53 22.42 64.53 21.79L64.53 21.79Q64.53 21.29 64.19 20.94Q63.85 20.59 62.98 20.39L62.98 20.39L59.70 19.69Q56.60 19.09 55.03 17.69Q53.46 16.30 53.46 14.11L53.46 14.11Q53.46 12.83 54.06 11.78Q54.65 10.73 55.68 9.99Q56.71 9.24 58.08 8.83Q59.46 8.42 61.03 8.42L61.03 8.42Q62.11 8.42 62.94 8.55Q63.78 8.68 64.45 8.88Q65.11 9.09 65.62 9.37Q66.12 9.65 66.52 9.96L66.52 9.96L69.49 9.96L69.49 14.71L65.08 14.71ZM83.60 13.98L83.60 9.29L91.98 9.29L91.98 22.32L94.12 22.32L94.12 27L86.61 27L86.61 25.50Q85.71 26.32 84.49 26.76Q83.28 27.21 81.69 27.21L81.69 27.21Q80.22 27.21 78.92 26.74Q77.62 26.28 76.66 25.35Q75.69 24.42 75.14 23.02Q74.58 21.62 74.58 19.72L74.58 19.72L74.58 13.98L72.27 13.98L72.27 9.29L80.10 9.29L80.10 19.72Q80.10 21.50 81.01 22.38Q81.91 23.26 83.37 23.26L83.37 23.26Q84.39 23.26 85.23 22.63Q86.07 21.99 86.44 20.92L86.44 20.92L86.44 13.98L83.60 13.98ZM96.75 13.98L96.75 9.29L104.85 9.29L104.85 10.83Q105.94 9.96 107.31 9.45Q108.68 8.94 110.13 8.94L110.13 8.94Q112.15 8.94 113.59 9.65Q115.03 10.35 115.85 11.81L115.85 11.81Q116.42 11.17 117.13 10.65Q117.84 10.13 118.64 9.75Q119.44 9.36 120.32 9.15Q121.20 8.94 122.13 8.94L122.13 8.94Q125.37 8.94 127.12 10.73Q128.86 12.52 128.86 15.98L128.86 15.98L128.86 22.32L131.37 22.32L131.37 27L123.29 27L123.29 16.85Q123.29 15.34 122.51 14.49Q121.73 13.64 120.35 13.64L120.35 13.64Q119.39 13.64 118.55 14.09Q117.70 14.54 116.86 15.65L116.86 15.65Q116.88 15.84 116.88 16.04Q116.88 16.23 116.88 16.44L116.88 16.44L116.88 22.32L119.44 22.32L119.44 27L111.36 27L111.36 16.81Q111.36 16.10 111.14 15.52Q110.91 14.93 110.52 14.52Q110.13 14.11 109.59 13.88Q109.05 13.65 108.40 13.64L108.40 13.64Q107.55 13.62 106.63 14.01Q105.72 14.40 104.88 15.46L104.88 15.46L104.88 22.32L107.72 22.32L107.72 27L96.71 27L96.71 22.32L99.34 22.32L99.34 13.98L96.75 13.98ZM133.56 13.98L133.56 9.29L141.51 9.29L141.51 22.32L143.97 22.32L143.97 27L133.56 27L133.56 22.32L136.22 22.32L136.22 13.98L133.56 13.98ZM135.95 3.59L135.95 3.59Q135.95 2.95 136.18 2.40Q136.41 1.84 136.82 1.43Q137.23 1.02 137.79 0.78Q138.34 0.54 138.99 0.54L138.99 0.54Q139.61 0.54 140.16 0.78Q140.70 1.02 141.11 1.43Q141.52 1.84 141.76 2.40Q142.00 2.95 142.00 3.59L142.00 3.59Q142.00 4.22 141.76 4.77Q141.52 5.33 141.11 5.74Q140.70 6.15 140.16 6.39Q139.61 6.63 138.99 6.63L138.99 6.63Q138.34 6.63 137.79 6.39Q137.23 6.15 136.82 5.74Q136.41 5.33 136.18 4.77Q135.95 4.22 135.95 3.59ZM161.62 27L161.62 16.81Q161.62 15.33 160.83 14.48Q160.05 13.64 158.75 13.64L158.75 13.64Q157.86 13.64 156.95 14.03Q156.05 14.42 155.19 15.50L155.19 15.50L155.19 22.32L158.07 22.32L158.07 27L147.06 27L147.06 22.32L149.66 22.32L149.66 13.98L147.09 13.98L147.09 9.29L155.16 9.29L155.16 10.85Q156.27 9.98 157.65 9.47Q159.02 8.97 160.54 8.97L160.54 8.97Q163.74 8.97 165.47 10.76Q167.19 12.54 167.19 15.98L167.19 15.98L167.19 22.32L169.70 22.32L169.70 27L161.62 27ZM182.49 5.09L182.49 0.41L190.23 0.41L190.23 22.32L193.68 22.32L193.68 27L184.96 27L184.96 26.32Q184.04 26.79 183.08 27.07Q182.11 27.34 181.12 27.34L181.12 27.34Q179.09 27.34 177.39 26.62Q175.69 25.89 174.46 24.62Q173.24 23.36 172.56 21.66Q171.87 19.96 171.87 18.01L171.87 18.01Q171.87 16.06 172.55 14.38Q173.22 12.70 174.43 11.45Q175.63 10.20 177.32 9.48Q179.00 8.77 181.02 8.77L181.02 8.77Q182.13 8.77 183.10 8.98Q184.08 9.19 184.96 9.59L184.96 9.59L184.96 5.09L182.49 5.09ZM181.41 22.63L181.41 22.63Q182.54 22.59 183.45 22.04Q184.37 21.50 184.96 20.61L184.96 20.61L184.96 15.40Q184.37 14.49 183.42 13.99Q182.47 13.48 181.41 13.50L181.41 13.50Q180.52 13.48 179.74 13.81Q178.97 14.13 178.38 14.73Q177.79 15.33 177.45 16.17Q177.10 17.00 177.10 18.06L177.10 18.06Q177.10 19.10 177.45 19.95Q177.79 20.80 178.38 21.39Q178.97 21.98 179.74 22.28Q180.52 22.59 181.41 22.63Z"/></g>
        
      </svg>
    